# xmcd
#
# Track frame offsets:
#	150
#	10429
#	21073
#	29983
#	38975
#	48623
#	57762
#
# Disc length: 912 seconds
#
# Revision: 0
# Processed by: cddbd v1.5.2PL0 Copyright (c) Steve Scherf et al.
# Submitted via: EasyCDDAExtractor 10.0.2.1
#
DISCID=5d038e07
DTITLE=Jim Reeves - He'll Have To Go
DYEAR=1960
DGENRE=Country
TTITLE0=He'll Have To Go
TTITLE1=I Love You More
TTITLE2=Wishful Thinking
TTITLE3=Honey, Won't You Please Come Home
TTITLE4=I'm Beginning To Forget You
TTITLE5=Billy Bayou
TTITLE6=If Heartache Is The Fashion
EXTD=
EXTT0=
EXTT1=
EXTT2=
EXTT3=
EXTT4=
EXTT5=
EXTT6=
PLAYORDER=
